<svg version="1.1" width="30" height="30" xmlns="http://www.w3.org/2000/svg" shape-rendering="crispEdges">
  <path fill="#000000" d="M11 0h1v1H11Z" />
  <path fill="#000000" d="M12 0h1v1H12Z" />
  <path fill="#000000" d="M13 0h1v1H13Z" />
  <path fill="#000000" d="M14 0h1v1H14Z" />
  <path fill="#000000" d="M15 0h1v1H15Z" />
  <path fill="#000000" d="M16 0h1v1H16Z" />
  <path fill="#000000" d="M17 0h1v1H17Z" />
  <path fill="#000000" d="M18 0h1v1H18Z" />
  <path fill="#000000" d="M8 1h1v1H8Z" />
  <path fill="#000000" d="M9 1h1v1H9Z" />
  <path fill="#000000" d="M10 1h1v1H10Z" />
  <path fill="#000000" d="M11 1h1v1H11Z" />
  <path fill="#000000" d="M12 1h1v1H12Z" />
  <path fill="#000000" d="M13 1h1v1H13Z" />
  <path fill="#000000" d="M14 1h1v1H14Z" />
  <path fill="#000000" d="M15 1h1v1H15Z" />
  <path fill="#000000" d="M16 1h1v1H16Z" />
  <path fill="#000000" d="M17 1h1v1H17Z" />
  <path fill="#000000" d="M18 1h1v1H18Z" />
  <path fill="#000000" d="M19 1h1v1H19Z" />
  <path fill="#000000" d="M20 1h1v1H20Z" />
  <path fill="#000000" d="M21 1h1v1H21Z" />
  <path fill="#000000" d="M6 2h1v1H6Z" />
  <path fill="#000000" d="M7 2h1v1H7Z" />
  <path fill="#000000" d="M8 2h1v1H8Z" />
  <path fill="#000000" d="M9 2h1v1H9Z" />
  <path fill="#000000" d="M10 2h1v1H10Z" />
  <path fill="#000000" d="M11 2h1v1H11Z" />
  <path fill="#000000" d="M12 2h1v1H12Z" />
  <path fill="#000000" d="M13 2h1v1H13Z" />
  <path fill="#000000" d="M14 2h1v1H14Z" />
  <path fill="#000000" d="M15 2h1v1H15Z" />
  <path fill="#000000" d="M16 2h1v1H16Z" />
  <path fill="#000000" d="M17 2h1v1H17Z" />
  <path fill="#000000" d="M18 2h1v1H18Z" />
  <path fill="#000000" d="M19 2h1v1H19Z" />
  <path fill="#000000" d="M20 2h1v1H20Z" />
  <path fill="#000000" d="M21 2h1v1H21Z" />
  <path fill="#000000" d="M22 2h1v1H22Z" />
  <path fill="#000000" d="M23 2h1v1H23Z" />
  <path fill="#000000" d="M5 3h1v1H5Z" />
  <path fill="#000000" d="M6 3h1v1H6Z" />
  <path fill="#000000" d="M7 3h1v1H7Z" />
  <path fill="#000000" d="M8 3h1v1H8Z" />
  <path fill="#000000" d="M9 3h1v1H9Z" />
  <path fill="#000000" d="M10 3h1v1H10Z" />
  <path fill="#000000" d="M11 3h1v1H11Z" />
  <path fill="#000000" d="M12 3h1v1H12Z" />
  <path fill="#000000" d="M13 3h1v1H13Z" />
  <path fill="#000000" d="M14 3h1v1H14Z" />
  <path fill="#000000" d="M15 3h1v1H15Z" />
  <path fill="#000000" d="M16 3h1v1H16Z" />
  <path fill="#000000" d="M17 3h1v1H17Z" />
  <path fill="#000000" d="M18 3h1v1H18Z" />
  <path fill="#000000" d="M19 3h1v1H19Z" />
  <path fill="#000000" d="M20 3h1v1H20Z" />
  <path fill="#000000" d="M21 3h1v1H21Z" />
  <path fill="#000000" d="M22 3h1v1H22Z" />
  <path fill="#000000" d="M23 3h1v1H23Z" />
  <path fill="#000000" d="M24 3h1v1H24Z" />
  <path fill="#000000" d="M4 4h1v1H4Z" />
  <path fill="#000000" d="M5 4h1v1H5Z" />
  <path fill="#000000" d="M6 4h1v1H6Z" />
  <path fill="#000000" d="M7 4h1v1H7Z" />
  <path fill="#000000" d="M8 4h1v1H8Z" />
  <path fill="#000000" d="M9 4h1v1H9Z" />
  <path fill="#000000" d="M10 4h1v1H10Z" />
  <path fill="#000000" d="M11 4h1v1H11Z" />
  <path fill="#000000" d="M12 4h1v1H12Z" />
  <path fill="#000000" d="M13 4h1v1H13Z" />
  <path fill="#000000" d="M14 4h1v1H14Z" />
  <path fill="#000000" d="M15 4h1v1H15Z" />
  <path fill="#000000" d="M16 4h1v1H16Z" />
  <path fill="#000000" d="M17 4h1v1H17Z" />
  <path fill="#000000" d="M18 4h1v1H18Z" />
  <path fill="#000000" d="M19 4h1v1H19Z" />
  <path fill="#000000" d="M20 4h1v1H20Z" />
  <path fill="#000000" d="M21 4h1v1H21Z" />
  <path fill="#000000" d="M22 4h1v1H22Z" />
  <path fill="#000000" d="M23 4h1v1H23Z" />
  <path fill="#000000" d="M24 4h1v1H24Z" />
  <path fill="#000000" d="M25 4h1v1H25Z" />
  <path fill="#000000" d="M3 5h1v1H3Z" />
  <path fill="#000000" d="M4 5h1v1H4Z" />
  <path fill="#000000" d="M5 5h1v1H5Z" />
  <path fill="#000000" d="M9 5h1v1H9Z" />
  <path fill="#000000" d="M10 5h1v1H10Z" />
  <path fill="#000000" d="M11 5h1v1H11Z" />
  <path fill="#000000" d="M12 5h1v1H12Z" />
  <path fill="#000000" d="M13 5h1v1H13Z" />
  <path fill="#000000" d="M14 5h1v1H14Z" />
  <path fill="#000000" d="M15 5h1v1H15Z" />
  <path fill="#000000" d="M16 5h1v1H16Z" />
  <path fill="#000000" d="M17 5h1v1H17Z" />
  <path fill="#000000" d="M18 5h1v1H18Z" />
  <path fill="#000000" d="M19 5h1v1H19Z" />
  <path fill="#000000" d="M20 5h1v1H20Z" />
  <path fill="#000000" d="M24 5h1v1H24Z" />
  <path fill="#000000" d="M25 5h1v1H25Z" />
  <path fill="#000000" d="M26 5h1v1H26Z" />
  <path fill="#000000" d="M2 6h1v1H2Z" />
  <path fill="#000000" d="M3 6h1v1H3Z" />
  <path fill="#000000" d="M4 6h1v1H4Z" />
  <path fill="#000000" d="M11 6h1v1H11Z" />
  <path fill="#000000" d="M18 6h1v1H18Z" />
  <path fill="#000000" d="M25 6h1v1H25Z" />
  <path fill="#000000" d="M26 6h1v1H26Z" />
  <path fill="#000000" d="M27 6h1v1H27Z" />
  <path fill="#000000" d="M1 7h1v1H1Z" />
  <path fill="#000000" d="M2 7h1v1H2Z" />
  <path fill="#000000" d="M3 7h1v1H3Z" />
  <path fill="#000000" d="M4 7h1v1H4Z" />
  <path fill="#000000" d="M5 7h1v1H5Z" />
  <path fill="#000000" d="M24 7h1v1H24Z" />
  <path fill="#000000" d="M25 7h1v1H25Z" />
  <path fill="#000000" d="M26 7h1v1H26Z" />
  <path fill="#000000" d="M27 7h1v1H27Z" />
  <path fill="#000000" d="M28 7h1v1H28Z" />
  <path fill="#000000" d="M1 8h1v1H1Z" />
  <path fill="#000000" d="M2 8h1v1H2Z" />
  <path fill="#000000" d="M3 8h1v1H3Z" />
  <path fill="#000000" d="M4 8h1v1H4Z" />
  <path fill="#000000" d="M5 8h1v1H5Z" />
  <path fill="#000000" d="M24 8h1v1H24Z" />
  <path fill="#000000" d="M25 8h1v1H25Z" />
  <path fill="#000000" d="M26 8h1v1H26Z" />
  <path fill="#000000" d="M27 8h1v1H27Z" />
  <path fill="#000000" d="M28 8h1v1H28Z" />
  <path fill="#000000" d="M0 9h1v1H0Z" />
  <path fill="#000000" d="M1 9h1v1H1Z" />
  <path fill="#000000" d="M2 9h1v1H2Z" />
  <path fill="#000000" d="M3 9h1v1H3Z" />
  <path fill="#000000" d="M4 9h1v1H4Z" />
  <path fill="#000000" d="M5 9h1v1H5Z" />
  <path fill="#000000" d="M6 9h1v1H6Z" />
  <path fill="#000000" d="M23 9h1v1H23Z" />
  <path fill="#000000" d="M24 9h1v1H24Z" />
  <path fill="#000000" d="M25 9h1v1H25Z" />
  <path fill="#000000" d="M26 9h1v1H26Z" />
  <path fill="#000000" d="M27 9h1v1H27Z" />
  <path fill="#000000" d="M28 9h1v1H28Z" />
  <path fill="#000000" d="M29 9h1v1H29Z" />
  <path fill="#000000" d="M0 10h1v1H0Z" />
  <path fill="#000000" d="M1 10h1v1H1Z" />
  <path fill="#000000" d="M2 10h1v1H2Z" />
  <path fill="#000000" d="M3 10h1v1H3Z" />
  <path fill="#000000" d="M4 10h1v1H4Z" />
  <path fill="#000000" d="M5 10h1v1H5Z" />
  <path fill="#000000" d="M24 10h1v1H24Z" />
  <path fill="#000000" d="M25 10h1v1H25Z" />
  <path fill="#000000" d="M26 10h1v1H26Z" />
  <path fill="#000000" d="M27 10h1v1H27Z" />
  <path fill="#000000" d="M28 10h1v1H28Z" />
  <path fill="#000000" d="M29 10h1v1H29Z" />
  <path fill="#000000" d="M0 11h1v1H0Z" />
  <path fill="#000000" d="M1 11h1v1H1Z" />
  <path fill="#000000" d="M2 11h1v1H2Z" />
  <path fill="#000000" d="M3 11h1v1H3Z" />
  <path fill="#000000" d="M4 11h1v1H4Z" />
  <path fill="#000000" d="M5 11h1v1H5Z" />
  <path fill="#000000" d="M24 11h1v1H24Z" />
  <path fill="#000000" d="M25 11h1v1H25Z" />
  <path fill="#000000" d="M26 11h1v1H26Z" />
  <path fill="#000000" d="M27 11h1v1H27Z" />
  <path fill="#000000" d="M28 11h1v1H28Z" />
  <path fill="#000000" d="M29 11h1v1H29Z" />
  <path fill="#000000" d="M0 12h1v1H0Z" />
  <path fill="#000000" d="M1 12h1v1H1Z" />
  <path fill="#000000" d="M2 12h1v1H2Z" />
  <path fill="#000000" d="M3 12h1v1H3Z" />
  <path fill="#000000" d="M4 12h1v1H4Z" />
  <path fill="#000000" d="M25 12h1v1H25Z" />
  <path fill="#000000" d="M26 12h1v1H26Z" />
  <path fill="#000000" d="M27 12h1v1H27Z" />
  <path fill="#000000" d="M28 12h1v1H28Z" />
  <path fill="#000000" d="M29 12h1v1H29Z" />
  <path fill="#000000" d="M0 13h1v1H0Z" />
  <path fill="#000000" d="M1 13h1v1H1Z" />
  <path fill="#000000" d="M2 13h1v1H2Z" />
  <path fill="#000000" d="M3 13h1v1H3Z" />
  <path fill="#000000" d="M4 13h1v1H4Z" />
  <path fill="#000000" d="M25 13h1v1H25Z" />
  <path fill="#000000" d="M26 13h1v1H26Z" />
  <path fill="#000000" d="M27 13h1v1H27Z" />
  <path fill="#000000" d="M28 13h1v1H28Z" />
  <path fill="#000000" d="M29 13h1v1H29Z" />
  <path fill="#000000" d="M0 14h1v1H0Z" />
  <path fill="#000000" d="M1 14h1v1H1Z" />
  <path fill="#000000" d="M2 14h1v1H2Z" />
  <path fill="#000000" d="M3 14h1v1H3Z" />
  <path fill="#000000" d="M4 14h1v1H4Z" />
  <path fill="#000000" d="M5 14h1v1H5Z" />
  <path fill="#000000" d="M24 14h1v1H24Z" />
  <path fill="#000000" d="M25 14h1v1H25Z" />
  <path fill="#000000" d="M26 14h1v1H26Z" />
  <path fill="#000000" d="M27 14h1v1H27Z" />
  <path fill="#000000" d="M28 14h1v1H28Z" />
  <path fill="#000000" d="M29 14h1v1H29Z" />
  <path fill="#000000" d="M0 15h1v1H0Z" />
  <path fill="#000000" d="M1 15h1v1H1Z" />
  <path fill="#000000" d="M2 15h1v1H2Z" />
  <path fill="#000000" d="M3 15h1v1H3Z" />
  <path fill="#000000" d="M4 15h1v1H4Z" />
  <path fill="#000000" d="M5 15h1v1H5Z" />
  <path fill="#000000" d="M24 15h1v1H24Z" />
  <path fill="#000000" d="M25 15h1v1H25Z" />
  <path fill="#000000" d="M26 15h1v1H26Z" />
  <path fill="#000000" d="M27 15h1v1H27Z" />
  <path fill="#000000" d="M28 15h1v1H28Z" />
  <path fill="#000000" d="M29 15h1v1H29Z" />
  <path fill="#000000" d="M0 16h1v1H0Z" />
  <path fill="#000000" d="M1 16h1v1H1Z" />
  <path fill="#000000" d="M2 16h1v1H2Z" />
  <path fill="#000000" d="M3 16h1v1H3Z" />
  <path fill="#000000" d="M4 16h1v1H4Z" />
  <path fill="#000000" d="M5 16h1v1H5Z" />
  <path fill="#000000" d="M24 16h1v1H24Z" />
  <path fill="#000000" d="M25 16h1v1H25Z" />
  <path fill="#000000" d="M26 16h1v1H26Z" />
  <path fill="#000000" d="M27 16h1v1H27Z" />
  <path fill="#000000" d="M28 16h1v1H28Z" />
  <path fill="#000000" d="M29 16h1v1H29Z" />
  <path fill="#000000" d="M0 17h1v1H0Z" />
  <path fill="#000000" d="M1 17h1v1H1Z" />
  <path fill="#000000" d="M2 17h1v1H2Z" />
  <path fill="#000000" d="M3 17h1v1H3Z" />
  <path fill="#000000" d="M4 17h1v1H4Z" />
  <path fill="#000000" d="M5 17h1v1H5Z" />
  <path fill="#000000" d="M24 17h1v1H24Z" />
  <path fill="#000000" d="M25 17h1v1H25Z" />
  <path fill="#000000" d="M26 17h1v1H26Z" />
  <path fill="#000000" d="M27 17h1v1H27Z" />
  <path fill="#000000" d="M28 17h1v1H28Z" />
  <path fill="#000000" d="M29 17h1v1H29Z" />
  <path fill="#000000" d="M0 18h1v1H0Z" />
  <path fill="#000000" d="M1 18h1v1H1Z" />
  <path fill="#000000" d="M2 18h1v1H2Z" />
  <path fill="#000000" d="M3 18h1v1H3Z" />
  <path fill="#000000" d="M4 18h1v1H4Z" />
  <path fill="#000000" d="M5 18h1v1H5Z" />
  <path fill="#000000" d="M24 18h1v1H24Z" />
  <path fill="#000000" d="M25 18h1v1H25Z" />
  <path fill="#000000" d="M26 18h1v1H26Z" />
  <path fill="#000000" d="M27 18h1v1H27Z" />
  <path fill="#000000" d="M28 18h1v1H28Z" />
  <path fill="#000000" d="M29 18h1v1H29Z" />
  <path fill="#000000" d="M0 19h1v1H0Z" />
  <path fill="#000000" d="M1 19h1v1H1Z" />
  <path fill="#000000" d="M2 19h1v1H2Z" />
  <path fill="#000000" d="M3 19h1v1H3Z" />
  <path fill="#000000" d="M4 19h1v1H4Z" />
  <path fill="#000000" d="M5 19h1v1H5Z" />
  <path fill="#000000" d="M6 19h1v1H6Z" />
  <path fill="#000000" d="M23 19h1v1H23Z" />
  <path fill="#000000" d="M24 19h1v1H24Z" />
  <path fill="#000000" d="M25 19h1v1H25Z" />
  <path fill="#000000" d="M26 19h1v1H26Z" />
  <path fill="#000000" d="M27 19h1v1H27Z" />
  <path fill="#000000" d="M28 19h1v1H28Z" />
  <path fill="#000000" d="M29 19h1v1H29Z" />
  <path fill="#000000" d="M0 20h1v1H0Z" />
  <path fill="#000000" d="M1 20h1v1H1Z" />
  <path fill="#000000" d="M2 20h1v1H2Z" />
  <path fill="#000000" d="M3 20h1v1H3Z" />
  <path fill="#000000" d="M4 20h1v1H4Z" />
  <path fill="#000000" d="M5 20h1v1H5Z" />
  <path fill="#000000" d="M6 20h1v1H6Z" />
  <path fill="#000000" d="M7 20h1v1H7Z" />
  <path fill="#000000" d="M22 20h1v1H22Z" />
  <path fill="#000000" d="M23 20h1v1H23Z" />
  <path fill="#000000" d="M24 20h1v1H24Z" />
  <path fill="#000000" d="M25 20h1v1H25Z" />
  <path fill="#000000" d="M26 20h1v1H26Z" />
  <path fill="#000000" d="M27 20h1v1H27Z" />
  <path fill="#000000" d="M28 20h1v1H28Z" />
  <path fill="#000000" d="M29 20h1v1H29Z" />
  <path fill="#000000" d="M1 21h1v1H1Z" />
  <path fill="#000000" d="M2 21h1v1H2Z" />
  <path fill="#000000" d="M3 21h1v1H3Z" />
  <path fill="#000000" d="M5 21h1v1H5Z" />
  <path fill="#000000" d="M6 21h1v1H6Z" />
  <path fill="#000000" d="M7 21h1v1H7Z" />
  <path fill="#000000" d="M8 21h1v1H8Z" />
  <path fill="#000000" d="M21 21h1v1H21Z" />
  <path fill="#000000" d="M22 21h1v1H22Z" />
  <path fill="#000000" d="M23 21h1v1H23Z" />
  <path fill="#000000" d="M24 21h1v1H24Z" />
  <path fill="#000000" d="M25 21h1v1H25Z" />
  <path fill="#000000" d="M26 21h1v1H26Z" />
  <path fill="#000000" d="M27 21h1v1H27Z" />
  <path fill="#000000" d="M28 21h1v1H28Z" />
  <path fill="#000000" d="M1 22h1v1H1Z" />
  <path fill="#000000" d="M2 22h1v1H2Z" />
  <path fill="#000000" d="M3 22h1v1H3Z" />
  <path fill="#000000" d="M6 22h1v1H6Z" />
  <path fill="#000000" d="M7 22h1v1H7Z" />
  <path fill="#000000" d="M8 22h1v1H8Z" />
  <path fill="#000000" d="M9 22h1v1H9Z" />
  <path fill="#000000" d="M10 22h1v1H10Z" />
  <path fill="#000000" d="M11 22h1v1H11Z" />
  <path fill="#000000" d="M18 22h1v1H18Z" />
  <path fill="#000000" d="M19 22h1v1H19Z" />
  <path fill="#000000" d="M20 22h1v1H20Z" />
  <path fill="#000000" d="M21 22h1v1H21Z" />
  <path fill="#000000" d="M22 22h1v1H22Z" />
  <path fill="#000000" d="M23 22h1v1H23Z" />
  <path fill="#000000" d="M24 22h1v1H24Z" />
  <path fill="#000000" d="M25 22h1v1H25Z" />
  <path fill="#000000" d="M26 22h1v1H26Z" />
  <path fill="#000000" d="M27 22h1v1H27Z" />
  <path fill="#000000" d="M28 22h1v1H28Z" />
  <path fill="#000000" d="M2 23h1v1H2Z" />
  <path fill="#000000" d="M3 23h1v1H3Z" />
  <path fill="#000000" d="M4 23h1v1H4Z" />
  <path fill="#000000" d="M7 23h1v1H7Z" />
  <path fill="#000000" d="M8 23h1v1H8Z" />
  <path fill="#000000" d="M9 23h1v1H9Z" />
  <path fill="#000000" d="M10 23h1v1H10Z" />
  <path fill="#000000" d="M19 23h1v1H19Z" />
  <path fill="#000000" d="M20 23h1v1H20Z" />
  <path fill="#000000" d="M21 23h1v1H21Z" />
  <path fill="#000000" d="M22 23h1v1H22Z" />
  <path fill="#000000" d="M23 23h1v1H23Z" />
  <path fill="#000000" d="M24 23h1v1H24Z" />
  <path fill="#000000" d="M25 23h1v1H25Z" />
  <path fill="#000000" d="M26 23h1v1H26Z" />
  <path fill="#000000" d="M27 23h1v1H27Z" />
  <path fill="#000000" d="M3 24h1v1H3Z" />
  <path fill="#000000" d="M4 24h1v1H4Z" />
  <path fill="#000000" d="M5 24h1v1H5Z" />
  <path fill="#000000" d="M10 24h1v1H10Z" />
  <path fill="#000000" d="M19 24h1v1H19Z" />
  <path fill="#000000" d="M20 24h1v1H20Z" />
  <path fill="#000000" d="M21 24h1v1H21Z" />
  <path fill="#000000" d="M22 24h1v1H22Z" />
  <path fill="#000000" d="M23 24h1v1H23Z" />
  <path fill="#000000" d="M24 24h1v1H24Z" />
  <path fill="#000000" d="M25 24h1v1H25Z" />
  <path fill="#000000" d="M26 24h1v1H26Z" />
  <path fill="#000000" d="M4 25h1v1H4Z" />
  <path fill="#000000" d="M5 25h1v1H5Z" />
  <path fill="#000000" d="M6 25h1v1H6Z" />
  <path fill="#000000" d="M19 25h1v1H19Z" />
  <path fill="#000000" d="M20 25h1v1H20Z" />
  <path fill="#000000" d="M21 25h1v1H21Z" />
  <path fill="#000000" d="M22 25h1v1H22Z" />
  <path fill="#000000" d="M23 25h1v1H23Z" />
  <path fill="#000000" d="M24 25h1v1H24Z" />
  <path fill="#000000" d="M25 25h1v1H25Z" />
  <path fill="#000000" d="M5 26h1v1H5Z" />
  <path fill="#000000" d="M6 26h1v1H6Z" />
  <path fill="#000000" d="M7 26h1v1H7Z" />
  <path fill="#000000" d="M8 26h1v1H8Z" />
  <path fill="#000000" d="M9 26h1v1H9Z" />
  <path fill="#000000" d="M19 26h1v1H19Z" />
  <path fill="#000000" d="M20 26h1v1H20Z" />
  <path fill="#000000" d="M21 26h1v1H21Z" />
  <path fill="#000000" d="M22 26h1v1H22Z" />
  <path fill="#000000" d="M23 26h1v1H23Z" />
  <path fill="#000000" d="M24 26h1v1H24Z" />
  <path fill="#000000" d="M6 27h1v1H6Z" />
  <path fill="#000000" d="M7 27h1v1H7Z" />
  <path fill="#000000" d="M8 27h1v1H8Z" />
  <path fill="#000000" d="M9 27h1v1H9Z" />
  <path fill="#000000" d="M10 27h1v1H10Z" />
  <path fill="#000000" d="M19 27h1v1H19Z" />
  <path fill="#000000" d="M20 27h1v1H20Z" />
  <path fill="#000000" d="M21 27h1v1H21Z" />
  <path fill="#000000" d="M22 27h1v1H22Z" />
  <path fill="#000000" d="M23 27h1v1H23Z" />
  <path fill="#000000" d="M8 28h1v1H8Z" />
  <path fill="#000000" d="M9 28h1v1H9Z" />
  <path fill="#000000" d="M10 28h1v1H10Z" />
  <path fill="#000000" d="M19 28h1v1H19Z" />
  <path fill="#000000" d="M20 28h1v1H20Z" />
  <path fill="#000000" d="M21 28h1v1H21Z" />
</svg>