<svg version="1.1" width="30" height="30" xmlns="http://www.w3.org/2000/svg" shape-rendering="crispEdges">
  <path fill="#000000" d="M4 4h1v1H4Z" />
  <path fill="#000000" d="M5 4h1v1H5Z" />
  <path fill="#000000" d="M6 4h1v1H6Z" />
  <path fill="#000000" d="M7 4h1v1H7Z" />
  <path fill="#000000" d="M4 5h1v1H4Z" />
  <path fill="#000000" d="M5 5h1v1H5Z" />
  <path fill="#000000" d="M6 5h1v1H6Z" />
  <path fill="#000000" d="M7 5h1v1H7Z" />
  <path fill="#000000" d="M4 6h1v1H4Z" />
  <path fill="#000000" d="M5 6h1v1H5Z" />
  <path fill="#000000" d="M6 6h1v1H6Z" />
  <path fill="#000000" d="M7 6h1v1H7Z" />
  <path fill="#000000" d="M4 7h1v1H4Z" />
  <path fill="#000000" d="M5 7h1v1H5Z" />
  <path fill="#000000" d="M6 7h1v1H6Z" />
  <path fill="#000000" d="M7 7h1v1H7Z" />
  <path fill="#000000" d="M4 10h1v1H4Z" />
  <path fill="#000000" d="M5 10h1v1H5Z" />
  <path fill="#000000" d="M6 10h1v1H6Z" />
  <path fill="#000000" d="M7 10h1v1H7Z" />
  <path fill="#000000" d="M12 10h1v1H12Z" />
  <path fill="#000000" d="M13 10h1v1H13Z" />
  <path fill="#000000" d="M14 10h1v1H14Z" />
  <path fill="#000000" d="M15 10h1v1H15Z" />
  <path fill="#000000" d="M20 10h1v1H20Z" />
  <path fill="#000000" d="M21 10h1v1H21Z" />
  <path fill="#000000" d="M22 10h1v1H22Z" />
  <path fill="#000000" d="M23 10h1v1H23Z" />
  <path fill="#000000" d="M24 10h1v1H24Z" />
  <path fill="#000000" d="M4 11h1v1H4Z" />
  <path fill="#000000" d="M5 11h1v1H5Z" />
  <path fill="#000000" d="M6 11h1v1H6Z" />
  <path fill="#000000" d="M7 11h1v1H7Z" />
  <path fill="#000000" d="M12 11h1v1H12Z" />
  <path fill="#000000" d="M13 11h1v1H13Z" />
  <path fill="#000000" d="M14 11h1v1H14Z" />
  <path fill="#000000" d="M15 11h1v1H15Z" />
  <path fill="#000000" d="M18 11h1v1H18Z" />
  <path fill="#000000" d="M19 11h1v1H19Z" />
  <path fill="#000000" d="M20 11h1v1H20Z" />
  <path fill="#000000" d="M21 11h1v1H21Z" />
  <path fill="#000000" d="M22 11h1v1H22Z" />
  <path fill="#000000" d="M23 11h1v1H23Z" />
  <path fill="#000000" d="M24 11h1v1H24Z" />
  <path fill="#000000" d="M25 11h1v1H25Z" />
  <path fill="#000000" d="M4 12h1v1H4Z" />
  <path fill="#000000" d="M5 12h1v1H5Z" />
  <path fill="#000000" d="M6 12h1v1H6Z" />
  <path fill="#000000" d="M7 12h1v1H7Z" />
  <path fill="#000000" d="M12 12h1v1H12Z" />
  <path fill="#000000" d="M13 12h1v1H13Z" />
  <path fill="#000000" d="M14 12h1v1H14Z" />
  <path fill="#000000" d="M15 12h1v1H15Z" />
  <path fill="#000000" d="M16 12h1v1H16Z" />
  <path fill="#000000" d="M17 12h1v1H17Z" />
  <path fill="#000000" d="M18 12h1v1H18Z" />
  <path fill="#000000" d="M19 12h1v1H19Z" />
  <path fill="#000000" d="M20 12h1v1H20Z" />
  <path fill="#000000" d="M21 12h1v1H21Z" />
  <path fill="#000000" d="M22 12h1v1H22Z" />
  <path fill="#000000" d="M23 12h1v1H23Z" />
  <path fill="#000000" d="M24 12h1v1H24Z" />
  <path fill="#000000" d="M25 12h1v1H25Z" />
  <path fill="#000000" d="M4 13h1v1H4Z" />
  <path fill="#000000" d="M5 13h1v1H5Z" />
  <path fill="#000000" d="M6 13h1v1H6Z" />
  <path fill="#000000" d="M7 13h1v1H7Z" />
  <path fill="#000000" d="M12 13h1v1H12Z" />
  <path fill="#000000" d="M13 13h1v1H13Z" />
  <path fill="#000000" d="M14 13h1v1H14Z" />
  <path fill="#000000" d="M15 13h1v1H15Z" />
  <path fill="#000000" d="M16 13h1v1H16Z" />
  <path fill="#000000" d="M17 13h1v1H17Z" />
  <path fill="#000000" d="M18 13h1v1H18Z" />
  <path fill="#000000" d="M19 13h1v1H19Z" />
  <path fill="#000000" d="M20 13h1v1H20Z" />
  <path fill="#000000" d="M21 13h1v1H21Z" />
  <path fill="#000000" d="M22 13h1v1H22Z" />
  <path fill="#000000" d="M23 13h1v1H23Z" />
  <path fill="#000000" d="M24 13h1v1H24Z" />
  <path fill="#000000" d="M25 13h1v1H25Z" />
  <path fill="#000000" d="M4 14h1v1H4Z" />
  <path fill="#000000" d="M5 14h1v1H5Z" />
  <path fill="#000000" d="M6 14h1v1H6Z" />
  <path fill="#000000" d="M7 14h1v1H7Z" />
  <path fill="#000000" d="M12 14h1v1H12Z" />
  <path fill="#000000" d="M13 14h1v1H13Z" />
  <path fill="#000000" d="M14 14h1v1H14Z" />
  <path fill="#000000" d="M15 14h1v1H15Z" />
  <path fill="#000000" d="M16 14h1v1H16Z" />
  <path fill="#000000" d="M17 14h1v1H17Z" />
  <path fill="#000000" d="M18 14h1v1H18Z" />
  <path fill="#000000" d="M19 14h1v1H19Z" />
  <path fill="#000000" d="M20 14h1v1H20Z" />
  <path fill="#000000" d="M21 14h1v1H21Z" />
  <path fill="#000000" d="M22 14h1v1H22Z" />
  <path fill="#000000" d="M23 14h1v1H23Z" />
  <path fill="#000000" d="M24 14h1v1H24Z" />
  <path fill="#000000" d="M25 14h1v1H25Z" />
  <path fill="#000000" d="M4 15h1v1H4Z" />
  <path fill="#000000" d="M5 15h1v1H5Z" />
  <path fill="#000000" d="M6 15h1v1H6Z" />
  <path fill="#000000" d="M7 15h1v1H7Z" />
  <path fill="#000000" d="M12 15h1v1H12Z" />
  <path fill="#000000" d="M13 15h1v1H13Z" />
  <path fill="#000000" d="M14 15h1v1H14Z" />
  <path fill="#000000" d="M15 15h1v1H15Z" />
  <path fill="#000000" d="M16 15h1v1H16Z" />
  <path fill="#000000" d="M17 15h1v1H17Z" />
  <path fill="#000000" d="M21 15h1v1H21Z" />
  <path fill="#000000" d="M22 15h1v1H22Z" />
  <path fill="#000000" d="M23 15h1v1H23Z" />
  <path fill="#000000" d="M24 15h1v1H24Z" />
  <path fill="#000000" d="M25 15h1v1H25Z" />
  <path fill="#000000" d="M4 16h1v1H4Z" />
  <path fill="#000000" d="M5 16h1v1H5Z" />
  <path fill="#000000" d="M6 16h1v1H6Z" />
  <path fill="#000000" d="M7 16h1v1H7Z" />
  <path fill="#000000" d="M12 16h1v1H12Z" />
  <path fill="#000000" d="M13 16h1v1H13Z" />
  <path fill="#000000" d="M14 16h1v1H14Z" />
  <path fill="#000000" d="M15 16h1v1H15Z" />
  <path fill="#000000" d="M16 16h1v1H16Z" />
  <path fill="#000000" d="M21 16h1v1H21Z" />
  <path fill="#000000" d="M22 16h1v1H22Z" />
  <path fill="#000000" d="M23 16h1v1H23Z" />
  <path fill="#000000" d="M24 16h1v1H24Z" />
  <path fill="#000000" d="M25 16h1v1H25Z" />
  <path fill="#000000" d="M4 17h1v1H4Z" />
  <path fill="#000000" d="M5 17h1v1H5Z" />
  <path fill="#000000" d="M6 17h1v1H6Z" />
  <path fill="#000000" d="M7 17h1v1H7Z" />
  <path fill="#000000" d="M12 17h1v1H12Z" />
  <path fill="#000000" d="M13 17h1v1H13Z" />
  <path fill="#000000" d="M14 17h1v1H14Z" />
  <path fill="#000000" d="M15 17h1v1H15Z" />
  <path fill="#000000" d="M16 17h1v1H16Z" />
  <path fill="#000000" d="M22 17h1v1H22Z" />
  <path fill="#000000" d="M23 17h1v1H23Z" />
  <path fill="#000000" d="M24 17h1v1H24Z" />
  <path fill="#000000" d="M25 17h1v1H25Z" />
  <path fill="#000000" d="M4 18h1v1H4Z" />
  <path fill="#000000" d="M5 18h1v1H5Z" />
  <path fill="#000000" d="M6 18h1v1H6Z" />
  <path fill="#000000" d="M7 18h1v1H7Z" />
  <path fill="#000000" d="M12 18h1v1H12Z" />
  <path fill="#000000" d="M13 18h1v1H13Z" />
  <path fill="#000000" d="M14 18h1v1H14Z" />
  <path fill="#000000" d="M15 18h1v1H15Z" />
  <path fill="#000000" d="M22 18h1v1H22Z" />
  <path fill="#000000" d="M23 18h1v1H23Z" />
  <path fill="#000000" d="M24 18h1v1H24Z" />
  <path fill="#000000" d="M25 18h1v1H25Z" />
  <path fill="#000000" d="M4 19h1v1H4Z" />
  <path fill="#000000" d="M5 19h1v1H5Z" />
  <path fill="#000000" d="M6 19h1v1H6Z" />
  <path fill="#000000" d="M7 19h1v1H7Z" />
  <path fill="#000000" d="M12 19h1v1H12Z" />
  <path fill="#000000" d="M13 19h1v1H13Z" />
  <path fill="#000000" d="M14 19h1v1H14Z" />
  <path fill="#000000" d="M15 19h1v1H15Z" />
  <path fill="#000000" d="M22 19h1v1H22Z" />
  <path fill="#000000" d="M23 19h1v1H23Z" />
  <path fill="#000000" d="M24 19h1v1H24Z" />
  <path fill="#000000" d="M25 19h1v1H25Z" />
  <path fill="#000000" d="M4 20h1v1H4Z" />
  <path fill="#000000" d="M5 20h1v1H5Z" />
  <path fill="#000000" d="M6 20h1v1H6Z" />
  <path fill="#000000" d="M7 20h1v1H7Z" />
  <path fill="#000000" d="M12 20h1v1H12Z" />
  <path fill="#000000" d="M13 20h1v1H13Z" />
  <path fill="#000000" d="M14 20h1v1H14Z" />
  <path fill="#000000" d="M15 20h1v1H15Z" />
  <path fill="#000000" d="M22 20h1v1H22Z" />
  <path fill="#000000" d="M23 20h1v1H23Z" />
  <path fill="#000000" d="M24 20h1v1H24Z" />
  <path fill="#000000" d="M25 20h1v1H25Z" />
  <path fill="#000000" d="M4 21h1v1H4Z" />
  <path fill="#000000" d="M5 21h1v1H5Z" />
  <path fill="#000000" d="M6 21h1v1H6Z" />
  <path fill="#000000" d="M7 21h1v1H7Z" />
  <path fill="#000000" d="M12 21h1v1H12Z" />
  <path fill="#000000" d="M13 21h1v1H13Z" />
  <path fill="#000000" d="M14 21h1v1H14Z" />
  <path fill="#000000" d="M15 21h1v1H15Z" />
  <path fill="#000000" d="M22 21h1v1H22Z" />
  <path fill="#000000" d="M23 21h1v1H23Z" />
  <path fill="#000000" d="M24 21h1v1H24Z" />
  <path fill="#000000" d="M25 21h1v1H25Z" />
  <path fill="#000000" d="M4 22h1v1H4Z" />
  <path fill="#000000" d="M5 22h1v1H5Z" />
  <path fill="#000000" d="M6 22h1v1H6Z" />
  <path fill="#000000" d="M7 22h1v1H7Z" />
  <path fill="#000000" d="M12 22h1v1H12Z" />
  <path fill="#000000" d="M13 22h1v1H13Z" />
  <path fill="#000000" d="M14 22h1v1H14Z" />
  <path fill="#000000" d="M15 22h1v1H15Z" />
  <path fill="#000000" d="M22 22h1v1H22Z" />
  <path fill="#000000" d="M23 22h1v1H23Z" />
  <path fill="#000000" d="M24 22h1v1H24Z" />
  <path fill="#000000" d="M25 22h1v1H25Z" />
  <path fill="#000000" d="M4 23h1v1H4Z" />
  <path fill="#000000" d="M5 23h1v1H5Z" />
  <path fill="#000000" d="M6 23h1v1H6Z" />
  <path fill="#000000" d="M7 23h1v1H7Z" />
  <path fill="#000000" d="M12 23h1v1H12Z" />
  <path fill="#000000" d="M13 23h1v1H13Z" />
  <path fill="#000000" d="M14 23h1v1H14Z" />
  <path fill="#000000" d="M15 23h1v1H15Z" />
  <path fill="#000000" d="M22 23h1v1H22Z" />
  <path fill="#000000" d="M23 23h1v1H23Z" />
  <path fill="#000000" d="M24 23h1v1H24Z" />
  <path fill="#000000" d="M25 23h1v1H25Z" />
  <path fill="#000000" d="M4 24h1v1H4Z" />
  <path fill="#000000" d="M5 24h1v1H5Z" />
  <path fill="#000000" d="M6 24h1v1H6Z" />
  <path fill="#000000" d="M7 24h1v1H7Z" />
  <path fill="#000000" d="M12 24h1v1H12Z" />
  <path fill="#000000" d="M13 24h1v1H13Z" />
  <path fill="#000000" d="M14 24h1v1H14Z" />
  <path fill="#000000" d="M15 24h1v1H15Z" />
  <path fill="#000000" d="M22 24h1v1H22Z" />
  <path fill="#000000" d="M23 24h1v1H23Z" />
  <path fill="#000000" d="M24 24h1v1H24Z" />
  <path fill="#000000" d="M25 24h1v1H25Z" />
  <path fill="#000000" d="M4 25h1v1H4Z" />
  <path fill="#000000" d="M5 25h1v1H5Z" />
  <path fill="#000000" d="M6 25h1v1H6Z" />
  <path fill="#000000" d="M7 25h1v1H7Z" />
  <path fill="#000000" d="M12 25h1v1H12Z" />
  <path fill="#000000" d="M13 25h1v1H13Z" />
  <path fill="#000000" d="M14 25h1v1H14Z" />
  <path fill="#000000" d="M15 25h1v1H15Z" />
  <path fill="#000000" d="M22 25h1v1H22Z" />
  <path fill="#000000" d="M23 25h1v1H23Z" />
  <path fill="#000000" d="M24 25h1v1H24Z" />
  <path fill="#000000" d="M25 25h1v1H25Z" />
  <path fill="#000000" d="M4 26h1v1H4Z" />
  <path fill="#000000" d="M5 26h1v1H5Z" />
  <path fill="#000000" d="M6 26h1v1H6Z" />
  <path fill="#000000" d="M7 26h1v1H7Z" />
  <path fill="#000000" d="M12 26h1v1H12Z" />
  <path fill="#000000" d="M13 26h1v1H13Z" />
  <path fill="#000000" d="M14 26h1v1H14Z" />
  <path fill="#000000" d="M15 26h1v1H15Z" />
  <path fill="#000000" d="M22 26h1v1H22Z" />
  <path fill="#000000" d="M23 26h1v1H23Z" />
  <path fill="#000000" d="M24 26h1v1H24Z" />
  <path fill="#000000" d="M25 26h1v1H25Z" /> 
</svg>