<svg width="300" height="180" xmlns="http://www.w3.org/2000/svg">
 <g id="Layer_1">
  <title>Layer 1</title>
  <!-- <mask id="a" style="mask-type:alpha" maskUnits="userSpaceOnUse" x="0" y="0" width="487" height="191">
    <rect width="487" height="191" rx="16" fill="#fff"/>
  </mask> -->
  <g id="svg_1">
   <g id="svg_11">
    <title>Layer 1</title>
    <mask id="svg_12" maskUnits="userSpaceOnUse" x="0" y="0" width="300" height="180">
     <rect id="svg_2" width="300" height="180" rx="16" fill="#fff"/>
    </mask>
    <path id="svg_3" stroke="null" fill="url(#svg_10)" d="m305.15946,217.26499c-0.36042,-0.22796 -0.70606,-0.47872 -1.05231,-0.72947c-8.70623,-6.17896 -19.37662,-8.79002 -30.0236,-7.93117a42.13075,42.13075 0 0 1 -27.57087,-7.41857c-19.1462,-13.28207 -23.8927,-40.34897 -10.41101,-59.35346a42.19421,42.19421 0 0 1 13.31596,-12.15213c8.70623,-5.03854 14.03188,-14.47486 13.61477,-24.53715a42.07592,42.07592 0 0 1 1.37023,-12.60497c5.95716,-22.49413 29.22574,-36.10213 51.75807,-30.22014c22.94513,6.00275 36.46995,29.55967 30.16777,52.32366a43.30999,43.30999 0 0 1 -1.68629,4.8956c-4.13286,10.01855 -0.78739,21.50959 8.18685,27.58997c0.08626,0.04621 0.16881,0.09919 0.24768,0.15711c24.79961,16.9584 34.18973,46.38375 20.95201,65.70061c-13.23833,19.31624 -44.06965,21.23912 -68.86926,4.28011z"/>
    <path id="svg_4" stroke="null" fill="url(#svg_9)" d="m-121.63453,-28.0523c-6.4291,10.7819 -15.69352,20.06666 -26.53211,27.28315c-9.19604,6.1118 -16.31703,13.65297 -20.77581,22.4775c-20.42709,40.3274 22.47319,92.64737 95.83142,116.84566c73.35761,24.19767 149.36326,11.06223 169.76386,-29.24792c9.71727,-19.18748 5.10754,-41.08399 -10.28779,-61.34781c-8.92618,-11.77446 -12.67213,-26.69969 -11.05176,-42.21393c1.37885,-13.33876 -0.14232,-26.4169 -4.47172,-38.44088c-17.42356,-48.69971 -76.34081,-69.7121 -131.82634,-46.94688c-25.37321,10.37527 -47.00109,28.7729 -60.64975,51.59111z"/>
    <path transform="rotate(69.3424 248.66 -94.4015)" id="svg_6" stroke="null" fill="url(#svg_8)" d="m157.49991,-154.99664c-6.4291,10.7819 -48.29843,48.34362 -24.66827,85.23595c23.63016,36.89232 30.91887,30.52808 30.69842,61.14794c-0.22045,30.61987 75.6749,43.87353 119.48874,30.21513c43.81384,-13.6584 49.24316,-29.59339 71.47738,-45.13041c22.23422,-15.53702 21.35064,-92.67044 5.95531,-112.93426c-8.92618,-11.77446 -7.62414,30.77655 -6.00377,15.26231c1.37885,-13.33876 -0.14232,-26.4169 -4.47172,-38.44088c-17.42356,-48.69971 -76.34081,-69.7121 -131.82634,-46.94688c-25.37321,10.37527 -47.00109,28.7729 -60.64975,51.59111z"/>
   </g>
  </g>
 </g>
 <defs>
  <linearGradient y2="0.03762" x2="0.57444" y1="1.14828" x1="0.45038" id="svg_10">
   <stop stop-opacity="0" stop-color="#6067DD"/>
   <stop stop-opacity="0.6" stop-color="#6067DD" offset="1"/>
  </linearGradient>
  <linearGradient y2="0.49182" x2="0.23037" y1="0.35587" x1="1.13612" id="svg_9">
   <stop stop-opacity="0" stop-color="#DE5BC3"/>
   <stop stop-opacity="0.6" stop-color="#DE5BC3" offset="1"/>
  </linearGradient>
  <linearGradient y2="0.49182" x2="0.23037" y1="0.35587" x1="1.13612" id="svg_8">
   <stop stop-opacity="0" stop-color="#F4A262"/>
   <stop stop-opacity="0.7" stop-color="#F4A262" offset="1"/>
  </linearGradient>
 </defs>
</svg>