<svg width="300" height="180" xmlns="http://www.w3.org/2000/svg">
 <g id="Layer_1">
  <title>Layer 1</title>
  <mask id="a" style="mask-type:alpha" maskUnits="userSpaceOnUse" x="0" y="0" width="300" height="180">
    <rect width="300" height="180" rx="16" fill="#fff"/>
  </mask>
  <path stroke="null" fill="url(#svg_2)" d="m299.11619,211.05202c-0.36042,-0.22796 -0.70606,-0.47872 -1.05231,-0.72947c-8.70623,-6.17896 -19.37662,-8.79002 -30.0236,-7.93117a42.13075,42.13075 0 0 1 -27.57087,-7.41857c-19.1462,-13.28207 -23.8927,-40.34897 -10.41101,-59.35346a42.19421,42.19421 0 0 1 13.31596,-12.15213c8.70623,-5.03854 14.03188,-14.47486 13.61477,-24.53715a42.07592,42.07592 0 0 1 1.37023,-12.60497c5.95716,-22.49413 29.22574,-36.10213 51.75807,-30.22014c22.94513,6.00275 36.46995,29.55967 30.16777,52.32366a43.30999,43.30999 0 0 1 -1.68629,4.8956c-4.13286,10.01855 -0.78739,21.50959 8.18685,27.58997c0.08626,0.04621 0.16881,0.09919 0.24768,0.15711c24.79961,16.9584 34.18973,46.38375 20.95201,65.70061c-13.23833,19.31624 -44.06965,21.23912 -68.86926,4.28011z"/>
  <path stroke="null" fill="url(#svg_1)" d="m-127.6778,-34.26527c-6.4291,10.7819 -15.69352,20.06666 -26.53211,27.28315c-9.19604,6.1118 -16.31703,13.65297 -20.77581,22.4775c-20.42709,40.3274 22.47319,92.64737 95.83142,116.84566c73.35761,24.19767 149.36326,11.06223 169.76386,-29.24792c9.71727,-19.18748 5.10754,-41.08399 -10.28779,-61.34781c-8.92618,-11.77446 -12.67213,-26.69969 -11.05176,-42.21393c1.37885,-13.33876 -0.14232,-26.4169 -4.47172,-38.44088c-17.42356,-48.69971 -76.34081,-69.7121 -131.82634,-46.94688c-25.37321,10.37527 -47.00109,28.7729 -60.64975,51.59111z"/>

 </g>
 <defs>
  <linearGradient gradientTransform="matrix(0.6161088347434998,0,0,0.6161088347434998,-8.330715894699097,40.853194773197174)" gradientUnits="userSpaceOnUse" y2="32.781" x2="515.815" y1="335.42" x1="485.287" id="svg_2">
   <stop stop-opacity="0" stop-color="#6067DD"/>
   <stop stop-opacity=".6" stop-color="#6067DD" offset="1"/>
  </linearGradient>
  <linearGradient gradientTransform="matrix(0.6161088347434998,0,0,0.6161088347434998,-8.330715894699097,40.853194773197174)" gradientUnits="userSpaceOnUse" y2="-29.37" x2="-175.643" y1="-82.221" x1="229.779" id="svg_1">
   <stop stop-opacity="0" stop-color="#DE5BC3"/>
   <stop stop-opacity=".6" stop-color="#DE5BC3" offset="1"/>
  </linearGradient>
 </defs>
</svg>