<svg width="300" height="300" xmlns="http://www.w3.org/2000/svg">
 <g id="Layer_1">
  <title>Layer 1</title>
  <rect id="svg_1" height="300" width="300" y="0" x="0" fill="url(#myGradient)" stroke="url(#myGradient)"/>
  <g stroke="null">
   <g stroke="null">
    <path stroke="null" fill="#ffffff" d="m150,227.32498c42.56034,0 77.32498,-34.55394 77.32498,-77.32498s-34.76464,-77.32498 -77.32498,-77.32498s-77.32498,34.76464 -77.32498,77.32498s34.76464,77.32498 77.32498,77.32498zm-46.77424,-26.96893c12.64169,-15.80211 29.28657,-24.44059 46.77424,-24.44059s34.13255,8.63849 46.77424,24.44059c-12.2203,11.37752 -28.65449,18.33045 -46.77424,18.33045s-34.55394,-6.95293 -46.77424,-18.33045zm46.77424,-119.25324c37.92506,0 68.89719,30.97213 68.89719,68.89719c0,16.85558 -6.11015,32.2363 -16.2235,44.2459c-14.32724,-17.27697 -32.86838,-26.75824 -52.67369,-26.75824s-38.34645,9.48126 -52.67369,26.75824c-10.11335,-12.0096 -16.2235,-27.39032 -16.2235,-44.2459c0,-37.92506 30.97213,-68.89719 68.89719,-68.89719z"/>
    <path stroke="null" fill="#ffffff" d="m150,156.95293c16.43419,0 29.91866,-13.48447 29.91866,-29.91866c0,-16.43419 -13.48447,-29.91866 -29.91866,-29.91866s-29.91866,13.48447 -29.91866,29.91866c0,16.43419 13.48447,29.91866 29.91866,29.91866zm0,-51.40952c11.79891,0 21.49087,9.69196 21.49087,21.49087s-9.69196,21.49087 -21.49087,21.49087s-21.49087,-9.69196 -21.49087,-21.49087s9.69196,-21.49087 21.49087,-21.49087z"/>
   </g>
  </g>
 </g>
    <linearGradient id="myGradient" gradientTransform="rotate(45)">
      <stop offset="0%" stop-color="#F5A362">
        <animate attributeName="stop-color" values="#F5A362; #6067DD; #DE5BC3; #F5A362" dur="10s" repeatCount="indefinite" />
      </stop>
      <stop offset="70%" stop-color="#DE5BC3">
        <animate attributeName="stop-color" values="#DE5BC3; #F5A362; #6067DD; #DE5BC3" dur="10s" repeatCount="indefinite" />
      </stop>
      <stop offset="100%" stop-color="#6067DD">
        <animate attributeName="stop-color" values="#6067DD; #DE5BC3; #F5A362; #6067DD" dur="10s" repeatCount="indefinite" />
      </stop>
    </linearGradient>
</svg>